<?xml version="1.0" encoding="utf-8"?>
<?xml-stylesheet type="text/xsl" href="rss1.xsl"?>
<rss version="2.0" xmlns:atom="http://www.w3.org/2005/Atom" xmlns:content="http://purl.org/rss/1.0/modules/content/" xmlns:dc="http://purl.org/dc/elements/1.1/" xmlns:media="http://search.yahoo.com/mrss/">
<channel>
 <title>Getty</title>
 <link>http://www.gettyimg.com/</link>
 <atom:link href="http://www.gettyimg.com/" rel="self" type="application/rss+xml" />

 
                <item>
                <title><![CDATA[【HD Live Performances】FEED - Taylor Swift - I Knew You Were Trouble (American Music Awards, USA, 2012) [720p]]]></title>
                <link><![CDATA[https://sharemania.us/threads/taylor-swift-i-knew-you-were-trouble-american-music-awards-usa-2012-720p.224255/]]></link>
                <description><![CDATA[<article>
<blockquote class="messageText SelectQuoteContainer ugc baseHtml">
<img src="https://i.postimg.cc/QdfkCMQB/Taylor-Swift-I-Knew-You-Were-Trouble-American-Music-Awards-USA-2012-mp4.jpg" class="bbCodeImage LbImage" alt="[​IMG]" data-url="https://i.postimg.cc/QdfkCMQB/Taylor-Swift-I-Knew-You-Were-Trouble-American-Music-Awards-USA-2012-mp4.jpg" style=""><br>
<br>
Mediainfo:<br>
<div class="ToggleTriggerAnchor bbCodeSpoilerContainer">
<button type="button" class="button bbCodeSpoilerButton ToggleTrigger Tooltip JsOnly" data-target="> .SpoilerTarget"><span>Spoiler</span></button>
<div class="SpoilerTarget bbCodeSpoilerText">General<br>
Complete name : C:\Work\-\Taylor Swift - I Knew You Were Trouble (American Music Awards, USA, 2012).mp4<br>
Format : MPEG-4<br>
Format profile : Base Media<br>
Codec ID : isom (isom/iso2/avc1/mp41)<br>
File size : 348 MiB<br>
Duration : 3 min 58 s<br>
Overall bit rate : 12.2 Mb/s<br>
Writing application : Lavf58.76.100<br>
<br>
Video<br>
ID : 1<br>
Format : AVC<br>
Format/Info : Advanced Video Codec<br>
Format profile : High@L4<br>
Format settings : CABAC / 8 Ref Frames<br>
Format settings, CABAC : Yes<br>
Format settings, Reference frames : 8 frames<br>
Codec ID : avc1<br>
Codec ID/Info : Advanced Video Coding<br>
Duration : 3 min 58 s<br>
Source duration : 3 min 58 s<br>
Bit rate : 11.5 Mb/s<br>
Maximum bit rate : 12.0 Mb/s<br>
Width : 1 280 pixels<br>
Height : 720 pixels<br>
Display aspect ratio : 16:9<br>
Frame rate mode : Constant<br>
Frame rate : 59.940 (60000/1001) FPS<br>
Color space : YUV<br>
Chroma subsampling : 4:2:0<br>
Bit depth : 8 bits<br>
Scan type : Progressive<br>
Bits/(Pixel*Frame) : 0.208<br>
Stream size : 328 MiB (94%)<br>
Source stream size : 342 MiB (98%)<br>
Writing library : x264 core 164<br>
Encoding settings : cabac=1 / ref=8 / deblock=1:0:0 / analyse=0x3:0x133 / me=umh / subme=9 / psy=1 / psy_rd=1.00:0.00 / mixed_ref=1 / me_range=16 / chroma_me=1 / trellis=2 / 8x8dct=1 / cqm=0 / deadzone=21,11 / fast_pskip=1 / chroma_qp_offset=-2 / threads=6 / lookahead_threads=1 / sliced_threads=0 / nr=0 / decimate=1 / interlaced=0 / bluray_compat=0 / constrained_intra=0 / bframes=3 / b_pyramid=2 / b_adapt=2 / b_bias=0 / direct=3 / weightb=1 / open_gop=0 / weightp=2 / keyint=250 / keyint_min=25 / scenecut=40 / intra_refresh=0 / rc_lookahead=60 / rc=crf / mbtree=1 / crf=18.0 / qcomp=0.60 / qpmin=0 / qpmax=69 / qpstep=4 / ip_ratio=1.40 / aq=1:1.00<br>
mdhd_Duration : 238922<br>
Codec configuration box : avcC<br>
<br>
Audio<br>
ID : 2<br>
Format : AAC LC<br>
Format/Info : Advanced Audio Codec Low Complexity<br>
Codec ID : mp4a-40-2<br>
Duration : 3 min 58 s<br>
Source duration : 3 min 58 s<br>
Bit rate mode : Constant<br>
Bit rate : 224 kb/s<br>
Channel(s) : 2 channels<br>
Channel layout : L R<br>
Sampling rate : 48.0 kHz<br>
Frame rate : 46.875 FPS (1024 SPF)<br>
Compression mode : Lossy<br>
Stream size : 6.38 MiB (2%)<br>
Source stream size : 6.38 MiB (2%)<br>
Default : Yes<br>
Alternate group : 1<br>
mdhd_Duration : 238936</div>
</div><br>
<div class="bbCodeBlock bbCodeVfcHH HiddenContent">
<div class="attribution type">Hidden Content:</div>
<blockquote>You must reply before you can see the hidden data contained here.</blockquote>
</div>
<div class="messageTextEndMarker">&nbsp;</div>
</blockquote>
</article>]]></description>
                <author><![CDATA[caladan]]></author>
                </item>

                </channel></rss>